<svg xmlns="http://www.w3.org/2000/svg" xmlns:svg="http://www.w3.org/2000/svg" id="Calque_1" width="216" height="216" x="0" y="0" enable-background="new 0 0 590.4 216" version="1.1" viewBox="0 0 216 216" xml:space="preserve"><metadata id="metadata3885"/><g id="g3337"><g id="g3339"><linearGradient id="SVGID_1_" x1="23.376" x2="15.36" y1="901.826" y2="892.474" gradientTransform="translate(90,-791)" gradientUnits="userSpaceOnUse"><stop id="stop3342" offset="0" stop-color="#0B5463"/><stop id="stop3344" offset="1" stop-color="#0B5463"/></linearGradient><polygon id="polygon3346" fill="url(#SVGID_1_)" points="102.813 103.89 115.141 103.466 108.976 115.113"/><linearGradient id="SVGID_2_" x1="92.377" x2="92.377" y1="905.86" y2="970.14" gradientTransform="translate(90,-791)" gradientUnits="userSpaceOnUse"><stop id="stop3349" offset="0" stop-color="#0B5463"/><stop id="stop3351" offset=".07" stop-color="#0B6070"/><stop id="stop3353" offset=".216" stop-color="#0B7285"/><stop id="stop3355" offset=".361" stop-color="#0A7D91"/><stop id="stop3357" offset=".5" stop-color="#0A8195"/><stop id="stop3359" offset=".639" stop-color="#0A7D91"/><stop id="stop3361" offset=".783" stop-color="#0B7285"/><stop id="stop3363" offset=".93" stop-color="#0B6070"/><stop id="stop3365" offset="1" stop-color="#0B5463"/></linearGradient><path id="path3367" fill="url(#SVGID_2_)" d="m 156.308,106.82 c 45.552,7.381 52.088,18.776 52.088,18.776 0,-0.002 0.111,1.146 0,2.107 -0.055,0.482 -0.242,0.842 -0.372,1.141 -0.261,0.604 -4.765,10.004 -34.201,16.201 L 156.308,106.82 Z"/><linearGradient id="SVGID_3_" x1="-50.446" x2="-29.59" y1="975.021" y2="937.888" gradientTransform="translate(90,-791)" gradientUnits="userSpaceOnUse"><stop id="stop3370" offset="0" stop-color="#014251"/><stop id="stop3372" offset=".086" stop-color="#025262"/><stop id="stop3374" offset=".227" stop-color="#046676"/><stop id="stop3376" offset=".366" stop-color="#057183"/><stop id="stop3378" offset=".5" stop-color="#057587"/><stop id="stop3380" offset=".634" stop-color="#057183"/><stop id="stop3382" offset=".773" stop-color="#046676"/><stop id="stop3384" offset=".914" stop-color="#025262"/><stop id="stop3386" offset="1" stop-color="#014251"/></linearGradient><path id="path3388" fill="url(#SVGID_3_)" d="m 41.516,143.514 c -10.369,27.344 -5.049,36.055 -4.692,36.596 0.181,0.271 0.349,0.668 0.755,0.934 0.157,0.104 2.143,-0.377 2.143,-0.377 0,0 18.623,-0.938 40.443,-31.939 l -38.649,-5.214 z"/><linearGradient id="SVGID_4_" x1="9.086" x2="-25.438" y1="848.944" y2="808.665" gradientTransform="translate(90,-791)" gradientUnits="userSpaceOnUse"><stop id="stop3391" offset="0" stop-color="#0D283A"/><stop id="stop3393" offset=".028" stop-color="#0C3042"/><stop id="stop3395" offset=".135" stop-color="#0B495A"/><stop id="stop3397" offset=".247" stop-color="#0A5B6C"/><stop id="stop3399" offset=".365" stop-color="#0A6676"/><stop id="stop3401" offset=".5" stop-color="#0A697A"/><stop id="stop3403" offset=".618" stop-color="#0A6070"/><stop id="stop3405" offset=".813" stop-color="#0B4758"/><stop id="stop3407" offset="1" stop-color="#0D283A"/></linearGradient><path id="path3409" fill="url(#SVGID_4_)" d="M 109.549,38.875 C 84.568,11.5 72.487,13.07 71.788,13.185 c -0.35,0.059 -0.69,0.072 -1.158,0.311 -0.832,0.426 -1.77,3.182 -1.77,3.182 0,0 -5.283,15.117 15.867,55.791 l 24.822,-33.594 z"/><linearGradient id="SVGID_5_" x1="77.418" x2="50.748" y1="979.431" y2="893.516" gradientTransform="translate(90,-791)" gradientUnits="userSpaceOnUse"><stop id="stop3412" offset="0" stop-color="#0D283A"/><stop id="stop3414" offset=".028" stop-color="#0C3042"/><stop id="stop3416" offset=".135" stop-color="#0B495A"/><stop id="stop3418" offset=".247" stop-color="#0A5B6C"/><stop id="stop3420" offset=".365" stop-color="#0A6676"/><stop id="stop3422" offset=".5" stop-color="#0A697A"/><stop id="stop3424" offset=".618" stop-color="#0A6070"/><stop id="stop3426" offset=".813" stop-color="#0B4758"/><stop id="stop3428" offset="1" stop-color="#0D283A"/></linearGradient><path id="path3430" fill="url(#SVGID_5_)" d="m 131.342,144.072 c 33.872,38.717 45.761,36.561 45.761,36.561 0,0 2.182,0.508 2.332,0.41 0.405,-0.266 0.572,-0.662 0.753,-0.934 0.482,-0.73 10.052,-16.422 -22.444,-72.979 l -26.402,36.942 z"/><linearGradient id="SVGID_6_" x1="-41.932" x2="-41.932" y1="905.86" y2="970.138" gradientTransform="translate(90,-791)" gradientUnits="userSpaceOnUse"><stop id="stop3433" offset="0" stop-color="#0B5463"/><stop id="stop3435" offset=".07" stop-color="#0B6070"/><stop id="stop3437" offset=".216" stop-color="#0B7285"/><stop id="stop3439" offset=".361" stop-color="#0A7D91"/><stop id="stop3441" offset=".5" stop-color="#0A8195"/><stop id="stop3443" offset=".639" stop-color="#0A7D91"/><stop id="stop3445" offset=".783" stop-color="#0B7285"/><stop id="stop3447" offset=".93" stop-color="#0B6070"/><stop id="stop3449" offset="1" stop-color="#0B5463"/></linearGradient><path id="path3451" fill="url(#SVGID_6_)" d="M 87.52,150.014 C 17.698,147.076 9.348,129.668 8.991,128.844 c -0.109,-0.25 -0.417,-0.746 -0.371,-1.141 0.145,-1.238 2.695,-3.439 2.695,-3.439 0,0 18.578,-11.404 49.362,-17.545 l 26.843,43.295 z"/><linearGradient id="SVGID_7_" x1="-6.566" x2="18.668" y1="842.787" y2="842.787" gradientTransform="translate(90,-791)" gradientUnits="userSpaceOnUse"><stop id="stop3454" offset="0" stop-color="#0B5463"/><stop id="stop3456" offset="1" stop-color="#0B5463"/></linearGradient><path id="path3458" fill="url(#SVGID_7_)" d="m 107.614,36.783 c -6.985,7.438 -15.034,17.199 -24.18,30.008 l 1.784,0 c 5.405,-6.887 18.892,-23.848 23.45,-28.838 l -1.054,-1.17 z" enable-background="new" opacity=".4"/><linearGradient id="SVGID_8_" x1="26.762" x2="26.762" y1="869.471" y2="808.843" gradientTransform="translate(90,-791)" gradientUnits="userSpaceOnUse"><stop id="stop3461" offset="0" stop-color="#014251"/><stop id="stop3463" offset=".5" stop-color="#057587"/><stop id="stop3465" offset=".693" stop-color="#057384"/><stop id="stop3467" offset=".804" stop-color="#056B7C"/><stop id="stop3469" offset=".893" stop-color="#035E6E"/><stop id="stop3471" offset=".971" stop-color="#024B5B"/><stop id="stop3473" offset="1" stop-color="#014251"/></linearGradient><path id="path3475" fill="url(#SVGID_8_)" d="m 135.817,68.23 c 18.261,-43.152 11.11,-53.051 11.11,-53.051 0,0 -0.377,-1.594 -0.542,-1.684 -0.308,-0.168 -0.917,-0.268 -1.159,-0.309 -0.884,-0.148 -19.868,-2.605 -60.008,53.604 l 50.599,1.44 z"/><linearGradient id="SVGID_9_" x1="-28.619" x2="82.142" y1="987.141" y2="819.717" gradientTransform="translate(90,-791)" gradientUnits="userSpaceOnUse"><stop id="stop3478" offset="0" stop-color="#0B879A"/><stop id="stop3480" offset=".082" stop-color="#379FB2"/><stop id="stop3482" offset=".168" stop-color="#5CB4C7"/><stop id="stop3484" offset=".253" stop-color="#79C5D7"/><stop id="stop3486" offset=".337" stop-color="#8DD1E3"/><stop id="stop3488" offset=".42" stop-color="#9AD8EA"/><stop id="stop3490" offset=".5" stop-color="#9EDAEC"/><stop id="stop3492" offset=".58" stop-color="#9AD8EA"/><stop id="stop3494" offset=".663" stop-color="#8DD1E3"/><stop id="stop3496" offset=".747" stop-color="#79C5D7"/><stop id="stop3498" offset=".833" stop-color="#5CB4C7"/><stop id="stop3500" offset=".918" stop-color="#379FB2"/><stop id="stop3502" offset="1" stop-color="#0B879A"/></linearGradient><path id="path3504" fill="url(#SVGID_9_)" d="m 108.172,176.496 c -24.74,26.969 -36.709,25.414 -37.406,25.299 -0.967,-0.162 -2.927,-1.459 -2.927,-1.459 L 37.578,181.041 C 50.32,178.332 66,163.186 82.504,143.922 l 25.668,32.574 z"/><linearGradient id="SVGID_10_" x1="-38.57" x2="5.3" y1="990.498" y2="951.219" gradientTransform="translate(90,-791)" gradientUnits="userSpaceOnUse"><stop id="stop3507" offset="0" stop-color="#057B8F"/><stop id="stop3509" offset=".082" stop-color="#038DA1"/><stop id="stop3511" offset=".181" stop-color="#029AB0"/><stop id="stop3513" offset=".301" stop-color="#01A2B8"/><stop id="stop3515" offset=".5" stop-color="#01A4BB"/><stop id="stop3517" offset=".699" stop-color="#01A2B8"/><stop id="stop3519" offset=".819" stop-color="#029AB0"/><stop id="stop3521" offset=".918" stop-color="#038DA1"/><stop id="stop3523" offset="1" stop-color="#057B8F"/></linearGradient><path id="path3525" fill="url(#SVGID_10_)" d="m 109.192,177.518 c -24.74,26.967 -36.708,25.412 -37.404,25.297 -0.969,-0.162 -2.928,-1.459 -2.928,-1.459 L 37.579,181.044 c 12.742,-2.709 29.441,-16.834 45.945,-36.1 l 25.668,32.574 z"/><linearGradient id="SVGID_11_" x1="-42.494" x2="59.365" y1="818.572" y2="988.338" gradientTransform="translate(90,-791)" gradientUnits="userSpaceOnUse"><stop id="stop3528" offset="0" stop-color="#057B8F"/><stop id="stop3530" offset=".018" stop-color="#0A8093"/><stop id="stop3532" offset=".141" stop-color="#279AAD"/><stop id="stop3534" offset=".263" stop-color="#3BAEBF"/><stop id="stop3536" offset=".384" stop-color="#48B9CA"/><stop id="stop3538" offset=".5" stop-color="#4CBDCE"/><stop id="stop3540" offset=".616" stop-color="#48B9CA"/><stop id="stop3542" offset=".737" stop-color="#3BAEBF"/><stop id="stop3544" offset=".859" stop-color="#279AAD"/><stop id="stop3546" offset=".982" stop-color="#0A8093"/><stop id="stop3548" offset="1" stop-color="#057B8F"/></linearGradient><path id="path3550" fill="url(#SVGID_11_)" d="M 43,72.677 C 32.01,44.38 37.481,35.419 37.844,34.87 c 0.541,-0.818 2.524,-2.08 2.524,-2.08 L 70.629,13.495 c -2.627,12.354 4.059,31.447 14.324,53.541 L 43,72.677 Z"/><linearGradient id="SVGID_12_" x1="67.688" x2="2.19" y1="987.313" y2="904.814" gradientTransform="translate(90,-791)" gradientUnits="userSpaceOnUse"><stop id="stop3553" offset="0" stop-color="#057B8F"/><stop id="stop3555" offset=".026" stop-color="#0A8093"/><stop id="stop3557" offset=".205" stop-color="#279AAD"/><stop id="stop3559" offset=".384" stop-color="#3BAEBF"/><stop id="stop3561" offset=".56" stop-color="#48B9CA"/><stop id="stop3563" offset=".73" stop-color="#4CBDCE"/><stop id="stop3565" offset=".792" stop-color="#48B9CA"/><stop id="stop3567" offset=".858" stop-color="#3BAEBF"/><stop id="stop3569" offset=".924" stop-color="#279AAD"/><stop id="stop3571" offset=".991" stop-color="#0A8093"/><stop id="stop3573" offset="1" stop-color="#057B8F"/></linearGradient><path id="path3575" fill="url(#SVGID_12_)" d="m 106.755,106.365 c -15.667,0.17 -31.37,1.221 -45.417,3.326 0.451,0.944 7.535,12.603 12.601,20.399 48.579,74.806 71.339,71.863 72.307,71.701 0.968,-0.16 2.928,-1.457 2.928,-1.457 l 30.262,-19.293 c -20.617,-4.381 -49.277,-37.979 -72.681,-74.676 z"/><linearGradient id="SVGID_13_" x1="-26.956" x2="-39.709" y1="860.165" y2="814.255" gradientTransform="translate(90,-791)" gradientUnits="userSpaceOnUse"><stop id="stop3578" offset="0" stop-color="#057B8F"/><stop id="stop3580" offset=".082" stop-color="#038DA1"/><stop id="stop3582" offset=".181" stop-color="#029AB0"/><stop id="stop3584" offset=".301" stop-color="#01A2B8"/><stop id="stop3586" offset=".5" stop-color="#01A4BB"/><stop id="stop3588" offset=".699" stop-color="#01A2B8"/><stop id="stop3590" offset=".819" stop-color="#029AB0"/><stop id="stop3592" offset=".918" stop-color="#038DA1"/><stop id="stop3594" offset="1" stop-color="#057B8F"/></linearGradient><path id="path3596" fill="url(#SVGID_13_)" d="M 41.981,73.699 C 30.991,45.4 36.462,36.439 36.824,35.89 c 0.542,-0.816 2.524,-2.08 2.524,-2.08 L 70.629,13.496 c -2.627,12.354 3.038,32.469 13.303,54.561 l -41.951,5.642 z"/><linearGradient id="SVGID_14_" x1="117.473" x2="-81.229" y1="891.126" y2="891.126" gradientTransform="translate(90,-791)" gradientUnits="userSpaceOnUse"><stop id="stop3599" offset="0" stop-color="#0B879A"/><stop id="stop3601" offset=".013" stop-color="#118B9E"/><stop id="stop3603" offset=".112" stop-color="#36A5BA"/><stop id="stop3605" offset=".211" stop-color="#53BAD0"/><stop id="stop3607" offset=".31" stop-color="#67C8E0"/><stop id="stop3609" offset=".407" stop-color="#74D1E9"/><stop id="stop3611" offset=".5" stop-color="#78D4EC"/><stop id="stop3613" offset=".593" stop-color="#74D1E9"/><stop id="stop3615" offset=".69" stop-color="#67C8E0"/><stop id="stop3617" offset=".788" stop-color="#53BAD0"/><stop id="stop3619" offset=".888" stop-color="#36A5BA"/><stop id="stop3621" offset=".987" stop-color="#118B9E"/><stop id="stop3623" offset="1" stop-color="#0B879A"/></linearGradient><path id="path3625" fill="url(#SVGID_14_)" d="m 156.279,110.549 c 23.614,3.406 43.153,8.193 52.116,17.154 l 0,-35.926 c 0,0 0.02,-2.35 -0.372,-3.25 -0.259,-0.594 -4.659,-9.783 -33.169,-15.98 l -18.575,38.002 z"/><linearGradient id="SVGID_15_" x1="60.517" x2="117.308" y1="888.225" y2="891.285" gradientTransform="translate(90,-791)" gradientUnits="userSpaceOnUse"><stop id="stop3628" offset="0" stop-color="#096F80"/><stop id="stop3630" offset=".006" stop-color="#097181"/><stop id="stop3632" offset=".091" stop-color="#0B8395"/><stop id="stop3634" offset=".188" stop-color="#0C8FA4"/><stop id="stop3636" offset=".305" stop-color="#0D97AC"/><stop id="stop3638" offset=".5" stop-color="#0D99AF"/><stop id="stop3640" offset=".695" stop-color="#0D97AC"/><stop id="stop3642" offset=".812" stop-color="#0C8FA4"/><stop id="stop3644" offset=".909" stop-color="#0B8395"/><stop id="stop3646" offset=".994" stop-color="#097181"/><stop id="stop3648" offset="1" stop-color="#096F80"/></linearGradient><path id="path3650" fill="url(#SVGID_15_)" d="m 156.279,109.178 c 23.614,3.406 43.153,9.564 52.116,18.525 l 0,-37.297 c 0,0 0.02,-2.35 -0.372,-3.25 -0.259,-0.594 -4.659,-9.783 -33.169,-15.98 l -18.575,38.002 z"/><linearGradient id="SVGID_16_" x1="-81.38" x2="21.085" y1="888.32" y2="888.32" gradientTransform="translate(90,-791)" gradientUnits="userSpaceOnUse"><stop id="stop3653" offset="0" stop-color="#0B879A"/><stop id="stop3655" offset=".022" stop-color="#118B9E"/><stop id="stop3657" offset=".197" stop-color="#36A5BA"/><stop id="stop3659" offset=".372" stop-color="#53BAD0"/><stop id="stop3661" offset=".545" stop-color="#67C8E0"/><stop id="stop3663" offset=".715" stop-color="#74D1E9"/><stop id="stop3665" offset=".879" stop-color="#78D4EC"/><stop id="stop3667" offset=".901" stop-color="#74D1E9"/><stop id="stop3669" offset=".925" stop-color="#67C8E0"/><stop id="stop3671" offset=".949" stop-color="#53BAD0"/><stop id="stop3673" offset=".973" stop-color="#36A5BA"/><stop id="stop3675" offset=".997" stop-color="#118B9E"/><stop id="stop3677" offset="1" stop-color="#0B879A"/></linearGradient><path id="path3679" fill="url(#SVGID_16_)" d="m 134.862,67.619 c -5.318,-0.258 -16.663,-0.682 -26.354,-0.682 -89.197,0 -99.124,20.689 -99.517,21.59 -0.391,0.9 -0.371,3.25 -0.371,3.25 l 0,35.926 c 8.678,-8.678 27.775,-13.406 50.98,-16.885 14.048,-2.105 29.596,-3.254 45.263,-3.424 2.771,-0.029 5.546,-0.029 8.315,0 0,0 27.002,-39.518 21.684,-39.775 z"/><linearGradient id="SVGID_17_" x1="-9.324" x2="-47.833" y1="861.803" y2="856.388" gradientTransform="translate(90,-791)" gradientUnits="userSpaceOnUse"><stop id="stop3682" offset="0" stop-color="#0B5463"/><stop id="stop3684" offset="1" stop-color="#0B5463"/></linearGradient><path id="path3686" fill="url(#SVGID_17_)" d="M 83.947,64.845 C 65.303,65.79 51.887,67.163 40.67,70.199 l 0.536,1.471 c 1.021,-0.166 2.295,-0.514 3.332,-0.67 12.669,-1.9 26.317,-3.637 40.416,-3.963 l -1.007,-2.192 z" enable-background="new" opacity=".2"/><linearGradient id="SVGID_18_" x1="29.86" x2="-78.964" y1="894.74" y2="879.437" gradientTransform="translate(90,-791)" gradientUnits="userSpaceOnUse"><stop id="stop3689" offset="0" stop-color="#0B879A"/><stop id="stop3691" offset=".038" stop-color="#1694A7"/><stop id="stop3693" offset=".118" stop-color="#26A8BA"/><stop id="stop3695" offset=".208" stop-color="#32B6C8"/><stop id="stop3697" offset=".318" stop-color="#39BED1"/><stop id="stop3699" offset=".5" stop-color="#3BC1D3"/><stop id="stop3701" offset=".682" stop-color="#39BED1"/><stop id="stop3703" offset=".792" stop-color="#32B6C8"/><stop id="stop3705" offset=".882" stop-color="#26A8BA"/><stop id="stop3707" offset=".962" stop-color="#1694A7"/><stop id="stop3709" offset="1" stop-color="#0B879A"/></linearGradient><path id="path3711" fill="url(#SVGID_18_)" d="m 134.862,66.248 c -5.318,-0.258 -16.663,-0.682 -26.354,-0.682 -89.197,0 -99.124,20.689 -99.517,21.59 -0.391,0.9 -0.371,3.25 -0.371,3.25 l 0,37.297 c 8.678,-8.678 27.775,-14.775 50.98,-18.256 14.048,-2.106 29.596,-3.254 45.263,-3.424 2.771,-0.029 5.546,-0.029 8.315,0.002 0,0 27.002,-39.52 21.684,-39.777 z"/><linearGradient id="SVGID_19_" x1="80.297" x2="28.548" y1="819.396" y2="908.521" gradientTransform="translate(90,-791)" gradientUnits="userSpaceOnUse"><stop id="stop3714" offset="0" stop-color="#0B879A"/><stop id="stop3716" offset=".124" stop-color="#379FB2"/><stop id="stop3718" offset=".252" stop-color="#5CB4C7"/><stop id="stop3720" offset=".38" stop-color="#79C5D7"/><stop id="stop3722" offset=".506" stop-color="#8DD1E3"/><stop id="stop3724" offset=".631" stop-color="#9AD8EA"/><stop id="stop3726" offset=".751" stop-color="#9EDAEC"/><stop id="stop3728" offset=".791" stop-color="#9AD8EA"/><stop id="stop3730" offset=".832" stop-color="#8DD1E3"/><stop id="stop3732" offset=".874" stop-color="#79C5D7"/><stop id="stop3734" offset=".917" stop-color="#5CB4C7"/><stop id="stop3736" offset=".959" stop-color="#379FB2"/><stop id="stop3738" offset="1" stop-color="#0B879A"/></linearGradient><path id="path3740" fill="url(#SVGID_19_)" d="m 108.502,109.08 c 24.314,-36.528 42.304,-74.786 37.882,-95.584 l 30.262,19.293 c 0,0 1.98,1.264 2.521,2.082 0.542,0.818 12.487,20.414 -36.094,95.221 -3.575,5.504 -6.885,11.99 -8.103,12.592 -8.289,-8.106 -26.468,-33.604 -26.468,-33.604 z"/><linearGradient id="SVGID_20_" x1="86.801" x2="67.959" y1="864.229" y2="899.587" gradientTransform="translate(90,-791)" gradientUnits="userSpaceOnUse"><stop id="stop3743" offset="0" stop-color="#0B5463"/><stop id="stop3745" offset="1" stop-color="#0B5463"/></linearGradient><path id="path3747" fill="url(#SVGID_20_)" d="m 175.734,71.333 c -5.28,12.918 -11.025,25.32 -19.455,39.147 l 2.229,0.424 c 9.653,-16.59 15.203,-28.776 18.983,-39.131 l -1.757,-0.44 z" enable-background="new" opacity=".25"/><linearGradient id="SVGID_21_" x1="78.6" x2="26.685" y1="821.354" y2="918.776" gradientTransform="translate(90,-791)" gradientUnits="userSpaceOnUse"><stop id="stop3750" offset="0" stop-color="#0B879A"/><stop id="stop3752" offset=".038" stop-color="#1694A7"/><stop id="stop3754" offset=".118" stop-color="#26A8BA"/><stop id="stop3756" offset=".208" stop-color="#32B6C8"/><stop id="stop3758" offset=".318" stop-color="#39BED1"/><stop id="stop3760" offset=".5" stop-color="#3BC1D3"/><stop id="stop3762" offset=".682" stop-color="#39BED1"/><stop id="stop3764" offset=".792" stop-color="#32B6C8"/><stop id="stop3766" offset=".882" stop-color="#26A8BA"/><stop id="stop3768" offset=".962" stop-color="#1694A7"/><stop id="stop3770" offset="1" stop-color="#0B879A"/></linearGradient><path id="path3772" fill="url(#SVGID_21_)" d="M 144.094,131.111 C 192.676,56.304 180.73,36.71 180.188,35.89 c -0.541,-0.816 -2.521,-2.08 -2.521,-2.08 L 146.385,13.496 c 4.396,20.678 -12.935,60.498 -37.042,96.872 8.118,12.356 16.496,24.437 25.324,34.678 1.759,-1.845 6.167,-8.917 9.427,-13.935 z"/><linearGradient id="SVGID_22_" x1="82.629" x2="30.257" y1="823.549" y2="921.83" gradientTransform="translate(90,-791)" gradientUnits="userSpaceOnUse"><stop id="stop3775" offset="0" stop-color="#0B879A"/><stop id="stop3777" offset=".038" stop-color="#1694A7"/><stop id="stop3779" offset=".118" stop-color="#26A8BA"/><stop id="stop3781" offset=".208" stop-color="#32B6C8"/><stop id="stop3783" offset=".318" stop-color="#39BED1"/><stop id="stop3785" offset=".5" stop-color="#3BC1D3"/><stop id="stop3787" offset=".682" stop-color="#39BED1"/><stop id="stop3789" offset=".792" stop-color="#32B6C8"/><stop id="stop3791" offset=".882" stop-color="#26A8BA"/><stop id="stop3793" offset=".962" stop-color="#1694A7"/><stop id="stop3795" offset="1" stop-color="#0B879A"/></linearGradient><path id="path3797" fill="url(#SVGID_22_)" d="m 133.788,146.396 c 0.107,-0.057 0.26,-0.195 0.43,-0.375 -8.828,-10.242 -17.602,-22.018 -25.719,-34.373 -0.14,0.209 -0.276,0.422 -0.416,0.633 0,0 16.919,26.723 25.705,34.115 z"/><linearGradient id="SVGID_23_" x1="-1.897" x2="11.535" y1="935.297" y2="971.688" gradientTransform="translate(90,-791)" gradientUnits="userSpaceOnUse"><stop id="stop3800" offset="0" stop-color="#0B5463"/><stop id="stop3802" offset="1" stop-color="#0B5463"/></linearGradient><path id="path3804" fill="url(#SVGID_23_)" d="m 108.506,178.262 c -0.398,-0.457 -18.246,-21.541 -26.364,-33.9 l -1.325,1.512 c 10.186,14.547 19.059,25.396 26.666,33.479 l 1.023,-1.091 z" enable-background="new" opacity=".2"/><linearGradient id="SVGID_24_" x1="23.611" x2="39.425" y1="897.869" y2="996.323" gradientTransform="translate(90,-791)" gradientUnits="userSpaceOnUse"><stop id="stop3807" offset="0" stop-color="#096F80"/><stop id="stop3809" offset=".024" stop-color="#107B8C"/><stop id="stop3811" offset=".089" stop-color="#2095A6"/><stop id="stop3813" offset=".16" stop-color="#2CA8BA"/><stop id="stop3815" offset=".24" stop-color="#34B6C8"/><stop id="stop3817" offset=".338" stop-color="#39BFD0"/><stop id="stop3819" offset=".5" stop-color="#3BC1D3"/><stop id="stop3821" offset=".672" stop-color="#39BED1"/><stop id="stop3823" offset=".775" stop-color="#33B6C8"/><stop id="stop3825" offset=".86" stop-color="#28A8BA"/><stop id="stop3827" offset=".935" stop-color="#1894A7"/><stop id="stop3829" offset="1" stop-color="#057B8F"/></linearGradient><path id="path3831" fill="url(#SVGID_24_)" d="m 134.217,146.021 c -8.828,-10.242 -17.602,-22.018 -25.719,-34.373 -0.929,-1.416 -1.853,-2.834 -2.763,-4.264 -15.667,0.17 -31.37,1.221 -45.418,3.325 0.451,0.947 7.536,12.603 12.601,20.399 48.58,74.808 71.339,71.865 72.308,71.703 0.968,-0.162 2.927,-1.459 2.927,-1.459 l 31.282,-20.312 c -12.802,-2.72 -29.097,-16.317 -45.218,-35.019 z"/></g></g></svg>